HIERARCHY
ROOT hip
{
  OFFSET 0 0 0
  CHANNELS 6 Xposition Yposition Zposition Zrotation Yrotation Xrotation
  JOINT abdomen
  {
    OFFSET 0 20.6881 -0.73152
    CHANNELS 3 Zrotation Xrotation Yrotation
    JOINT chest
    {
      OFFSET 0 11.7043 -0.48768
      CHANNELS 3 Zrotation Xrotation Yrotation
      JOINT neck
      {
        OFFSET 0 22.1894 -2.19456
        CHANNELS 3 Zrotation Xrotation Yrotation
        JOINT head
        {
          OFFSET -0.24384 7.07133 1.2192
          CHANNELS 3 Zrotation Xrotation Yrotation
          JOINT leftEye
          {
            OFFSET 4.14528 8.04674 8.04672
            CHANNELS 3 Zrotation Xrotation Yrotation
            End Site
            {
              OFFSET 1 0 0
            }
          }
          JOINT rightEye
          {
            OFFSET -3.6576 8.04674 8.04672
            CHANNELS 3 Zrotation Xrotation Yrotation
            End Site
            {
              OFFSET 1 0 0
            }
          }
        }
      }
      JOINT rCollar
      {
        OFFSET -2.68224 19.2634 -4.8768
        CHANNELS 3 Zrotation Xrotation Yrotation
        JOINT rShldr
        {
          OFFSET -8.77824 -1.95073 1.46304
          CHANNELS 3 Zrotation Xrotation Yrotation
          JOINT rForeArm
          {
            OFFSET -28.1742 -1.7115 0.48768
            CHANNELS 3 Zrotation Xrotation Yrotation
            JOINT rHand
            {
              OFFSET -22.5879 0.773209 7.07136
              CHANNELS 3 Zrotation Xrotation Yrotation
              JOINT rThumb1
              {
                OFFSET -1.2192 -0.487915 3.41376
                CHANNELS 3 Zrotation Xrotation Yrotation
                JOINT rThumb2
                {
                  OFFSET -3.37035 -0.52449 3.41376
                  CHANNELS 3 Zrotation Xrotation Yrotation
                  End Site
                  {
                    OFFSET -1.78271 -1.18214 1.43049
                  }
                }
              }
              JOINT rIndex1
              {
                OFFSET -7.75947 0.938293 5.60832
                CHANNELS 3 Zrotation Xrotation Yrotation
                JOINT rIndex2
                {
                  OFFSET -2.54057 -0.884171 1.56538
                  CHANNELS 3 Zrotation Xrotation Yrotation
                  End Site
                  {
                    OFFSET -1.62519 -0.234802 1.16502
                  }
                }
              }
              JOINT rMid1
              {
                OFFSET -8.24714 1.18213 3.41376
                CHANNELS 3 Zrotation Xrotation Yrotation
                JOINT rMid2
                {
                  OFFSET -3.10165 -0.590103 1.0647
                  CHANNELS 3 Zrotation Xrotation Yrotation
                  End Site
                  {
                    OFFSET -2.48547 -0.328903 0.83742
                  }
                }
              }
              JOINT rRing1
              {
                OFFSET -8.82822 0.546677 1.51678
                CHANNELS 3 Zrotation Xrotation Yrotation
                JOINT rRing2
                {
                  OFFSET -2.60934 -0.819778 -0.0198488
                  CHANNELS 3 Zrotation Xrotation Yrotation
                  End Site
                  {
                    OFFSET -2.33842 -0.294052 0.168128
                  }
                }
              }
              JOINT rPinky1
              {
                OFFSET -8.27202 -0.0477905 -0.4584
                CHANNELS 3 Zrotation Xrotation Yrotation
                JOINT rPinky2
                {
                  OFFSET -1.82734 -0.647385 -0.700984
                  CHANNELS 3 Zrotation Xrotation Yrotation
                  End Site
                  {
                    OFFSET -1.69225 -0.51767 -0.607171
                  }
                }
              }
            }
          }
        }
      }
      JOINT lCollar
      {
        OFFSET 2.68224 19.2634 -4.8768
        CHANNELS 3 Zrotation Xrotation Yrotation
        JOINT lShldr
        {
          OFFSET 8.77824 -1.95073 1.46304
          CHANNELS 3 Zrotation Xrotation Yrotation
          JOINT lForeArm
          {
            OFFSET 28.1742 -1.7115 0.48768
            CHANNELS 3 Zrotation Xrotation Yrotation
            JOINT lHand
            {
              OFFSET 22.5879 0.773209 7.07136
              CHANNELS 3 Zrotation Xrotation Yrotation
              JOINT lThumb1
              {
                OFFSET 1.2192 -0.487915 3.41376
                CHANNELS 3 Zrotation Xrotation Yrotation
                JOINT lThumb2
                {
                  OFFSET 3.37035 -0.52449 3.41376
                  CHANNELS 3 Zrotation Xrotation Yrotation
                  End Site
                  {
                    OFFSET 1.78271 -1.18214 1.43049
                  }
                }
              }
              JOINT lIndex1
              {
                OFFSET 7.75947 0.938293 5.60832
                CHANNELS 3 Zrotation Xrotation Yrotation
                JOINT lIndex2
                {
                  OFFSET 2.54057 -0.884171 1.56538
                  CHANNELS 3 Zrotation Xrotation Yrotation
                  End Site
                  {
                    OFFSET 1.62519 -0.234802 1.16502
                  }
                }
              }
              JOINT lMid1
              {
                OFFSET 8.24714 1.18213 3.41376
                CHANNELS 3 Zrotation Xrotation Yrotation
                JOINT lMid2
                {
                  OFFSET 3.10165 -0.590103 1.0647
                  CHANNELS 3 Zrotation Xrotation Yrotation
                  End Site
                  {
                    OFFSET 2.48547 -0.328903 0.83742
                  }
                }
              }
              JOINT lRing1
              {
                OFFSET 8.82822 0.546677 1.51678
                CHANNELS 3 Zrotation Xrotation Yrotation
                JOINT lRing2
                {
                  OFFSET 2.60934 -0.819778 -0.0198488
                  CHANNELS 3 Zrotation Xrotation Yrotation
                  End Site
                  {
                    OFFSET 2.33842 -0.294052 0.168128
                  }
                }
              }
              JOINT lPinky1
              {
                OFFSET 8.27202 -0.0477905 -0.4584
                CHANNELS 3 Zrotation Xrotation Yrotation
                JOINT lPinky2
                {
                  OFFSET 1.82734 -0.647385 -0.700984
                  CHANNELS 3 Zrotation Xrotation Yrotation
                  End Site
                  {
                    OFFSET 1.69225 -0.51767 -0.607171
                  }
                }
              }
            }
          }
        }
      }
    }
  }
  JOINT rButtock
  {
    OFFSET -8.77824 4.35084 1.2192
    CHANNELS 3 Zrotation Xrotation Yrotation
    JOINT rThigh
    {
      OFFSET 0 -1.70687 -2.19456
      CHANNELS 3 Zrotation Xrotation Yrotation
      JOINT rShin
      {
        OFFSET 0 -36.8199 0.73152
        CHANNELS 3 Zrotation Xrotation Yrotation
        JOINT rFoot
        {
          OFFSET 0.73152 -45.1104 -5.12064
          CHANNELS 3 Zrotation Xrotation Yrotation
          End Site
          {
            OFFSET -1.1221 -3.69964 12.103
          }
        }
      }
    }
  }
  JOINT lButtock
  {
    OFFSET 8.77824 4.35084 1.2192
    CHANNELS 3 Zrotation Xrotation Yrotation
    JOINT lThigh
    {
      OFFSET 0 -1.70687 -2.19456
      CHANNELS 3 Zrotation Xrotation Yrotation
      JOINT lShin
      {
        OFFSET 0 -36.8199 0.73152
        CHANNELS 3 Zrotation Xrotation Yrotation
        JOINT lFoot
        {
          OFFSET -0.73152 -45.1104 -5.12064
          CHANNELS 3 Zrotation Xrotation Yrotation
          End Site
          {
            OFFSET 1.1221 -3.69964 12.103
          }
        }
      }
    }
  }
}
MOTION
Frames:	8
Frame Time:	0.00833333
-4.67367 73.5986 26.3521 -2.399 -1.5376 14.619 15.685 25.901 -0.662657 -0.392403 -12.0725 0.790345 3.07325 5.54942 -0.826391 11.0644 -8.65497 -1.34615 -0.0 0.0 0.0 -0.0 0.0 0.0 1.24281e-14 -3.82631e-14 1.54365e-13 3.467 -30.5984 -1.26388 -28.4169 -34.515 74.5049 -1.42448 -31.8004 -4.99885 8.80287e-10 -5.44678e-10 4.71118e-11 1.50498e-09 -8.87529e-10 1.12311e-10 8.80289e-10 -5.44683e-10 4.70983e-11 7.73091 5.47488 0.417314 8.80282e-10 -5.44665e-10 4.71155e-11 2.90554 0.965183 0.102902 8.80293e-10 -5.44677e-10 4.71113e-11 10.2786 0.731801 0.0259123 8.8028e-10 -5.44673e-10 4.71127e-11 2.22167 -0.733487 -0.20892 1.23463e-14 -3.82691e-14 1.54137e-13 -19.5425 31.4376 10.0778 20.8429 -52.6583 -112.128 6.14357 -55.2802 11.7018 -2.04283e-09 8.26858e-09 1.32915e-09 -3.57704e-09 1.37439e-08 2.18876e-09 -2.04284e-09 8.26856e-09 1.32915e-09 -7.73091 5.47488 -0.417314 -2.04283e-09 8.26857e-09 1.32915e-09 -2.90554 0.965183 -0.102902 -2.04284e-09 8.26858e-09 1.32915e-09 -10.2786 0.731801 -0.0259123 -2.04283e-09 8.26858e-09 1.32915e-09 -2.22167 -0.733487 0.20892 -2.03217e-16 0.0 -3.88251e-19 -15.0544 -43.6644 -17.8844 -0.726472 53.2907 1.13995 3.10854 -18.7361 7.26462 2.03217e-16 0.0 3.88251e-19 24.7922 -49.2797 23.4247 1.02968 60.3861 -1.71845 -2.12904 -18.4157 -4.79963
-4.56495 73.6087 26.3977 -2.3971 -1.3309 14.4364 16.3617 26.036 -0.376984 -0.378165 -12.0612 0.916685 3.03392 5.27906 -1.02284 10.6 -8.77756 -1.75761 -0.0 0.0 0.0 -0.0 0.0 0.0 -2.29969e-14 -6.67893e-14 1.94113e-13 4.11837 -29.8013 -2.01809 -28.3786 -33.897 73.5313 -1.21294 -29.6266 -4.58423 4.37994e-10 -1.07466e-09 -6.36047e-11 7.48674e-10 -1.81584e-09 -9.04637e-11 4.37995e-10 -1.07467e-09 -6.36206e-11 7.73091 5.47488 0.417314 4.37988e-10 -1.07465e-09 -6.35984e-11 2.90554 0.965183 0.102902 4.38e-10 -1.07466e-09 -6.36031e-11 10.2786 0.731801 0.0259123 4.37987e-10 -1.07466e-09 -6.36016e-11 2.22167 -0.733487 -0.20892 -2.31227e-14 -6.67944e-14 1.93865e-13 -17.5025 28.4856 9.98479 21.5139 -52.0798 -110.399 6.1547 -55.3111 11.7154 -2.09529e-09 7.28935e-09 1.17869e-09 -3.66076e-09 1.20725e-08 1.92762e-09 -2.09529e-09 7.28933e-09 1.17869e-09 -7.73091 5.47488 -0.417314 -2.09529e-09 7.28935e-09 1.17869e-09 -2.90554 0.965183 -0.102902 -2.09529e-09 7.28935e-09 1.17869e-09 -10.2786 0.731801 -0.0259123 -2.09528e-09 7.28935e-09 1.17868e-09 -2.22167 -0.733487 0.20892 -2.03217e-16 0.0 -3.88251e-19 -15.3271 -43.3834 -18.1458 -0.725922 53.2765 1.13926 3.12144 -18.7306 7.29803 2.03217e-16 0.0 3.88251e-19 24.4187 -49.2272 23.0834 1.03185 60.4085 -1.71713 -2.15855 -18.4367 -4.86934
-4.43889 73.6234 26.4488 -2.3839 -1.0906 14.2402 17.0728 26.1047 -0.161318 -0.299374 -12.1538 1.03076 2.89418 5.32709 -1.20609 10.174 -9.00441 -2.09784 -0.0 0.0 0.0 -0.0 0.0 0.0 -3.255e-14 -3.10856e-14 1.54166e-13 4.91072 -28.9342 -2.74845 -28.337 -33.4095 72.7814 -1.0312 -27.5242 -4.20149 2.12873e-10 4.73505e-10 6.38674e-10 3.51785e-10 8.57656e-10 1.11586e-09 2.12874e-10 4.735e-10 6.38657e-10 7.73091 5.47488 0.417314 2.12867e-10 4.73514e-10 6.3868e-10 2.90554 0.965183 0.102902 2.12879e-10 4.73507e-10 6.38675e-10 10.2786 0.731801 0.0259123 2.12868e-10 4.73511e-10 6.38678e-10 2.22167 -0.733487 -0.20892 -3.26815e-14 -3.10848e-14 1.53913e-13 -15.7596 25.7704 9.88842 22.2063 -51.441 -108.546 6.2047 -55.4481 11.7762 -1.15145e-09 2.89776e-09 8.16487e-10 -2.02004e-09 4.78395e-09 1.35159e-09 -1.15146e-09 2.89774e-09 8.16494e-10 -7.73091 5.47488 -0.417314 -1.15145e-09 2.89776e-09 8.1649e-10 -2.90554 0.965183 -0.102902 -1.15146e-09 2.89777e-09 8.16488e-10 -10.2786 0.731801 -0.0259123 -1.15145e-09 2.89776e-09 8.16482e-10 -2.22167 -0.733487 0.20892 -2.03217e-16 0.0 -3.88251e-19 -15.5819 -43.0616 -18.4137 -0.723477 53.2214 1.13757 3.11504 -18.7449 7.27864 2.03217e-16 0.0 3.88251e-19 24.0225 -49.1745 22.6883 1.03327 60.4236 -1.71525 -2.16685 -18.461 -4.88413
-4.2862 73.6392 26.5091 -2.3067 -0.8126 14.0043 17.7896 26.142 0.00595487 -0.170183 -12.3049 1.1363 2.69192 5.54639 -1.37761 9.76839 -9.26096 -2.39327 -0.0 0.0 0.0 -0.0 0.0 0.0 -2.89038e-14 4.71065e-14 6.29371e-14 5.82502 -28.0374 -3.46341 -28.3045 -33.0316 72.1747 -0.87231 -25.5051 -3.8457 6.39672e-11 3.29286e-09 1.84278e-09 7.79945e-11 5.73283e-09 3.19016e-09 6.397e-11 3.29285e-09 1.84277e-09 7.73091 5.47488 0.417314 6.39631e-11 3.29286e-09 1.84279e-09 2.90554 0.965183 0.102902 6.39737e-11 3.29286e-09 1.84278e-09 10.2786 0.731801 0.0259123 6.3965e-11 3.29287e-09 1.84279e-09 2.22167 -0.733487 -0.20892 -2.90191e-14 4.7117e-14 6.26886e-14 -14.2395 23.2094 9.74256 22.9123 -50.7054 -106.568 6.28394 -55.6623 11.8723 4.57359e-10 -3.92782e-09 2.76326e-10 7.73288e-10 -6.52052e-09 5.0231e-10 4.57356e-10 -3.92783e-09 2.76338e-10 -7.73091 5.47488 -0.417314 4.57362e-10 -3.92782e-09 2.7633e-10 -2.90554 0.965183 -0.102902 4.57354e-10 -3.92781e-09 2.76329e-10 -10.2786 0.731801 -0.0259123 4.57362e-10 -3.92782e-09 2.76323e-10 -2.22167 -0.733487 0.20892 -2.03217e-16 0.0 -3.88251e-19 -15.8156 -42.6896 -18.6731 -0.719342 53.1284 1.13481 3.09293 -18.7793 7.21524 2.03217e-16 0.0 3.88251e-19 23.596 -49.0996 22.2427 1.03342 60.4209 -1.71193 -2.16269 -18.4869 -4.86721
-4.15775 73.6501 26.561 -2.2661 -0.5304 13.8072 18.4888 26.1598 0.160771 -0.0364581 -12.4693 1.23719 2.46592 5.77047 -1.5403 9.39436 -9.45508 -2.66897 -0.0 0.0 0.0 -0.0 0.0 0.0 -1.6345e-14 1.30369e-13 -3.7236e-14 6.75435 -27.1423 -4.17505 -28.2759 -32.6887 71.5949 -0.731334 -23.5277 -3.50813 -3.82375e-11 6.23704e-09 3.1018e-09 -1.15983e-10 1.08259e-08 5.36063e-09 -3.82331e-11 6.23703e-09 3.10178e-09 7.73091 5.47488 0.417314 -3.82398e-11 6.23703e-09 3.1018e-09 2.90554 0.965183 0.102902 -3.82302e-11 6.23704e-09 3.1018e-09 10.2786 0.731801 0.0259123 -3.82371e-11 6.23704e-09 3.1018e-09 2.22167 -0.733487 -0.20892 -1.64401e-14 1.30387e-13 -3.74798e-14 -12.842 20.7451 9.54198 23.5862 -49.9186 -104.572 6.37779 -55.9118 11.9858 2.10655e-09 -1.11996e-08 -2.3502e-10 3.6348e-09 -1.85949e-08 -2.95587e-10 2.10654e-09 -1.11996e-08 -2.35003e-10 -7.73091 5.47488 -0.417314 2.10655e-09 -1.11996e-08 -2.35014e-10 -2.90554 0.965183 -0.102902 2.10654e-09 -1.11996e-08 -2.35014e-10 -10.2786 0.731801 -0.0259123 2.10655e-09 -1.11996e-08 -2.3502e-10 -2.22167 -0.733487 0.20892 -2.03217e-16 0.0 -3.88251e-19 -16.0274 -42.3064 -18.9271 -0.714529 53.019 1.13144 3.06771 -18.8147 7.14442 2.03217e-16 0.0 3.88251e-19 23.1828 -49.0193 21.7965 1.03371 60.4121 -1.70878 -2.15715 -18.5085 -4.8479
-4.05466 73.6569 26.6049 -2.2653 -0.2698 13.6588 19.1468 26.17 0.339185 0.055631 -12.6016 1.33725 2.25299 5.83286 -1.69679 9.06445 -9.49464 -2.94973 -0.0 0.0 0.0 -0.0 0.0 0.0 8.39579e-16 1.81282e-13 -1.04014e-13 7.59082 -26.2801 -4.89579 -28.2381 -32.2992 70.9362 -0.605664 -21.5503 -3.18172 -1.23256e-10 8.15967e-09 3.9688e-09 -2.73433e-10 1.41531e-08 6.85544e-09 -1.23251e-10 8.15966e-09 3.96879e-09 7.73091 5.47488 0.417314 -1.23257e-10 8.15965e-09 3.9688e-09 2.90554 0.965183 0.102902 -1.23248e-10 8.15967e-09 3.9688e-09 10.2786 0.731801 0.0259123 -1.23255e-10 8.15967e-09 3.9688e-09 2.22167 -0.733487 -0.20892 7.50647e-16 1.81301e-13 -1.04263e-13 -11.4676 18.3198 9.28299 24.1996 -49.1356 -102.647 6.47068 -56.1549 12.0978 3.1715e-09 -1.69299e-08 -5.10772e-10 5.4801e-09 -2.81934e-08 -7.17484e-10 3.1715e-09 -1.69298e-08 -5.10753e-10 -7.73091 5.47488 -0.417314 3.1715e-09 -1.69298e-08 -5.10765e-10 -2.90554 0.965183 -0.102902 3.1715e-09 -1.69298e-08 -5.10765e-10 -10.2786 0.731801 -0.0259123 3.1715e-09 -1.69299e-08 -5.10772e-10 -2.22167 -0.733487 0.20892 -2.03217e-16 0.0 -3.88251e-19 -16.2174 -41.9508 -19.1788 -0.710039 52.9145 1.12791 3.05215 -18.8317 7.10279 2.03217e-16 0.0 3.88251e-19 22.8251 -48.9512 21.3987 1.03556 60.4093 -1.70742 -2.16138 -18.52 -4.85555
-3.93969 73.6646 26.6724 -2.2459 -0.0234 13.4915 19.7542 26.1754 0.560184 0.0899166 -12.6954 1.43958 2.04469 5.65917 -1.84673 8.796 -9.29117 -3.24238 -0.0 0.0 0.0 -0.0 0.0 0.0 2.94257e-14 1.86383e-13 -1.279e-13 8.30378 -25.4597 -5.63744 -28.1829 -31.8352 70.1783 -0.491208 -19.5338 -2.85825 -1.84438e-10 8.66588e-09 4.32563e-09 -3.80255e-10 1.50326e-08 7.47096e-09 -1.84433e-10 8.66587e-09 4.32561e-09 7.73091 5.47488 0.417314 -1.84439e-10 8.66587e-09 4.32562e-09 2.90554 0.965183 0.102902 -1.8443e-10 8.66588e-09 4.32563e-09 10.2786 0.731801 0.0259123 -1.84438e-10 8.66588e-09 4.32563e-09 2.22167 -0.733487 -0.20892 2.93121e-14 1.86387e-13 -1.28169e-13 -10.0963 15.9297 8.94244 24.7644 -48.3574 -100.769 6.57411 -56.4218 12.2222 3.43581e-09 -2.12551e-08 -4.21559e-10 5.93077e-09 -3.56218e-08 -5.51987e-10 3.43581e-09 -2.12551e-08 -4.2154e-10 -7.73091 5.47488 -0.417314 3.43582e-09 -2.12551e-08 -4.21553e-10 -2.90554 0.965183 -0.102902 3.43581e-09 -2.1255e-08 -4.21554e-10 -10.2786 0.731801 -0.0259123 3.43581e-09 -2.12551e-08 -4.2156e-10 -2.22167 -0.733487 0.20892 -2.03217e-16 0.0 -3.88251e-19 -16.3626 -41.6471 -19.4042 -0.706007 52.8175 1.12427 3.04803 -18.8228 7.09676 2.03217e-16 0.0 3.88251e-19 22.5605 -48.9036 21.0864 1.04046 60.4176 -1.70975 -2.17914 -18.5131 -4.90138
-3.82982 73.673 26.7409 -2.2469 0.2577 13.311 20.3249 26.1698 0.801323 0.0921354 -12.773 1.54139 1.82565 5.34825 -1.98893 8.58206 -8.91537 -3.53302 -0.0 0.0 0.0 -0.0 0.0 0.0 6.90599e-14 1.6679e-13 -1.30878e-13 8.95022 -24.6644 -6.3917 -28.1147 -31.3366 69.3795 -0.389009 -17.5102 -2.54088 -2.10882e-10 8.39679e-09 4.4103e-09 -4.2191e-10 1.45733e-08 7.61811e-09 -2.10878e-10 8.39678e-09 4.41028e-09 7.73091 5.47488 0.417314 -2.10884e-10 8.39678e-09 4.41029e-09 2.90554 0.965183 0.102902 -2.10875e-10 8.39679e-09 4.4103e-09 10.2786 0.731801 0.0259123 -2.10885e-10 8.39679e-09 4.41031e-09 2.22167 -0.733487 -0.20892 6.89044e-14 1.6677e-13 -1.31176e-13 -8.79478 13.5984 8.52974 25.2881 -47.5543 -98.9121 6.69228 -56.721 12.3638 3.24922e-09 -2.50132e-08 -1.02406e-10 5.59491e-09 -4.22209e-08 -1.3837e-11 3.24922e-09 -2.50132e-08 -1.0239e-10 -7.73091 5.47488 -0.417314 3.24922e-09 -2.50132e-08 -1.02402e-10 -2.90554 0.965183 -0.102902 3.24922e-09 -2.50132e-08 -1.02403e-10 -10.2786 0.731801 -0.0259123 3.24922e-09 -2.50132e-08 -1.0241e-10 -2.22167 -0.733487 0.20892 -2.03217e-16 0.0 -3.88251e-19 -16.4719 -41.3698 -19.6106 -0.701949 52.7177 1.12031 3.04912 -18.799 7.10792 2.03217e-16 0.0 3.88251e-19 22.3567 -48.8669 20.8248 1.04728 60.4298 -1.71444 -2.20419 -18.4931 -4.96861
